<?xml version="1.0" encoding="UTF-8"?>
<svg id="uuid-c1b28034-caa0-4ba6-9016-3abf9f5b209d" xmlns="http://www.w3.org/2000/svg" version="1.1" viewBox="0 0 179.1 36" >
  <defs>
    <style>
      .cls-1 {
        fill: #3b97d2;
      }

      .cls-1, .cls-2, .cls-3 {
        stroke-width: 0px;
      }

      .cls-2 {
        fill: #2c3e50;
      }

      .cls-3 {
        fill: #fff;
      }
    </style>
  </defs>
  <path class="cls-1" d="M0,0v36h179.1V0H0ZM51.3,2.9h1.6v3.3h-1.6v-3.3ZM19.7,12.2h-5.7v14.9h-3.4v-14.9h-5.7v-3.2h14.8v3.2ZM41.6,27h-3.4v-7.4h-8.1v7.4h-3.4V9h3.4v7.4h8.1v-7.4h3.4v18ZM48.5,10.5h-3.3v-1.6h3.3v1.6ZM49,7.8l-2.3-2.3,1.1-1.1,2.3,2.3-1.1,1.1ZM53.8,27h-3.4V9h3.4v18ZM54,6.7l2.3-2.3,1.1,1.1-2.3,2.3-1.1-1.1ZM58.9,10.5h-3.3v-1.6h3.3v1.6ZM77.3,27h-3.5l-7.9-12v12h-3.5V9h3.5l7.9,12v-12h3.5v18ZM96.5,27h0s-6-7.4-6-7.4l-1.4,1.5v5.8h-3.3V9h3.3v7.6l7-7.6h4.2l-7.5,8.2,8,9.8h-4.2ZM176.6,33.6h-67.7V2.4h67.7v31.2Z"/>
  <rect class="cls-3" x="108.9" y="2.4" width="67.7" height="31.2"/>
  <path class="cls-2" d="M116.5,27.3h-2.7V8.9h2.7v7.9h9.2v-7.9h2.7v18.4h-2.7v-7.9h-9.2s0,7.9,0,7.9Z"/>
  <path class="cls-2" d="M140.6,26.8c-1.1-.6-2-1.4-2.6-2.5s-.9-2.3-.9-3.8v-11.6h2.7v11.5c0,1,.2,1.9.7,2.6.4.7,1,1.3,1.7,1.6.7.4,1.4.5,2.2.5s1.5-.2,2.2-.6c.7-.4,1.3-.9,1.7-1.6s.7-1.6.7-2.6v-11.5h2.7v11.6c0,1.4-.3,2.7-.9,3.8-.6,1.1-1.5,1.9-2.6,2.5s-2.4.9-3.8.9-2.7-.3-3.8-.9h0Z"/>
  <path class="cls-2" d="M160.4,27.3V8.9h7.4c.5,0,1,0,1.4.1,1,.1,1.9.5,2.5,1,.7.5,1.2,1.2,1.6,2,.3.8.5,1.7.5,2.7s-.2,1.9-.5,2.7c-.4.8-.9,1.5-1.6,2-.7.5-1.5.9-2.5,1-.4,0-.9.1-1.4.1h-4.8v6.6h-2.7,0ZM167.7,18.2c.4,0,.8,0,1.2-.1.8-.2,1.3-.6,1.7-1.2s.6-1.3.6-2.1-.2-1.4-.6-2.1-.9-1-1.7-1.2c-.3,0-.7-.1-1.2-.1h-4.7v6.7h4.7Z"/>
</svg>